<svg width="20" height="18" viewBox="0 0 20 18" fill="none" xmlns="http://www.w3.org/2000/svg">
<path d="M0.560453 0H1.8565C2.59209 0 3.2226 0.455368 3.4678 1.12091H18.8803C19.6159 1.12091 20.1413 1.82147 19.9661 2.52204L18.4949 8.40679C18.2497 9.38759 17.339 10.0882 16.3232 10.0882H5.3243L5.5695 11.4543C5.67459 11.9797 6.16498 12.33 6.69041 12.33H17.374C17.6543 12.33 17.9345 12.6102 17.9345 12.8904C17.9345 13.2057 17.6543 13.4509 17.374 13.4509H6.69041C5.60453 13.4509 4.69379 12.7153 4.48362 11.6644L2.41695 1.57627C2.38192 1.33108 2.13673 1.12091 1.8565 1.12091H0.560453C0.245198 1.12091 0 0.875708 0 0.560453C0 0.280226 0.245198 0 0.560453 0ZM3.713 2.24181L5.0791 8.96725H16.3232C16.8486 8.96725 17.304 8.61696 17.4091 8.12657L18.8803 2.24181H3.713ZM5.88476 15.9729C5.88476 16.2882 6.02487 16.5684 6.3051 16.7085C6.86555 17.0588 7.56611 16.6384 7.56611 15.9729C7.56611 15.6927 7.39097 15.4125 7.14577 15.2723C6.58532 14.9221 5.88476 15.3424 5.88476 15.9729ZM8.68702 15.9729C8.68702 16.7085 8.30171 17.339 7.70623 17.6893C6.37515 18.4599 4.76385 17.5142 4.76385 15.9729C4.76385 15.2723 5.11413 14.6418 5.74464 14.2915C7.04069 13.5209 8.68702 14.4667 8.68702 15.9729ZM15.6927 15.1322C15.3774 15.1322 15.0972 15.3074 14.9571 15.5526C14.6068 16.113 15.0271 16.8136 15.6927 16.8136C15.9729 16.8136 16.2531 16.6735 16.3932 16.3932C16.7435 15.8328 16.3232 15.1322 15.6927 15.1322ZM15.6927 17.9345C14.9571 17.9345 14.3266 17.5842 13.9763 16.9537C13.2057 15.6577 14.1514 14.0113 15.6927 14.0113C16.3932 14.0113 17.0238 14.3966 17.374 14.9921C18.1447 16.3232 17.1989 17.9345 15.6927 17.9345Z" fill="#222222"/>
</svg>
