<svg width="20" height="20" viewBox="0 0 20 20" fill="none" xmlns="http://www.w3.org/2000/svg">
<path d="M19.7188 19.7188C19.3438 20.0938 18.6562 20.0938 18.2812 19.7188L10.0312 11.4062L1.71875 19.7188C1.34375 20.0938 0.65625 20.0938 0.28125 19.7188C-0.09375 19.3438 -0.09375 18.6562 0.28125 18.2812L8.59375 9.96875L0.28125 1.71875C-0.09375 1.34375 -0.09375 0.65625 0.28125 0.28125C0.65625 -0.09375 1.34375 -0.09375 1.71875 0.28125L10.0312 8.59375L18.2812 0.28125C18.6562 -0.09375 19.3438 -0.09375 19.7188 0.28125C20.0938 0.65625 20.0938 1.34375 19.7188 1.71875L11.4062 9.96875L19.7188 18.2812C20.0938 18.6562 20.0938 19.3438 19.7188 19.7188Z" fill="#222222"/>
</svg>
