<svg width="20" height="20" viewBox="0 0 20 20" fill="none" xmlns="http://www.w3.org/2000/svg">
<path d="M0 2.86957C0 2.38932 0.389318 2 0.869565 2H19.1304C19.6107 2 20 2.38932 20 2.86957C20 3.34981 19.6107 3.73913 19.1304 3.73913H0.869565C0.389317 3.73913 0 3.34981 0 2.86957Z" fill="#222222"/>
<path d="M0 9.82609C0 9.34584 0.389318 8.95652 0.869565 8.95652H19.1304C19.6107 8.95652 20 9.34584 20 9.82609C20 10.3063 19.6107 10.6957 19.1304 10.6957H0.869565C0.389317 10.6957 0 10.3063 0 9.82609Z" fill="#222222"/>
<path d="M0 16.7826C0 16.3024 0.389318 15.913 0.869565 15.913H19.1304C19.6107 15.913 20 16.3024 20 16.7826C20 17.2629 19.6107 17.6522 19.1304 17.6522H0.869565C0.389317 17.6522 0 17.2629 0 16.7826Z" fill="#222222"/>
</svg>
